<svg xmlns="http://www.w3.org/2000/svg" viewBox="0 0 400 300" fill="none"><rect width="400" height="300" fill="#f0f0f0"/><rect x="100" y="50" width="200" height="200" rx="10" fill="#424242" stroke="#212121" stroke-width="4"/><rect x="120" y="70" width="160" height="40" fill="#81C784" rx="5"/><g fill="white"><rect x="120" y="120" width="30" height="30" rx="5"/><rect x="160" y="120" width="30" height="30" rx="5"/><rect x="200" y="120" width="30" height="30" rx="5"/><rect x="240" y="120" width="30" height="30" rx="5"/><rect x="120" y="160" width="30" height="30" rx="5"/><rect x="160" y="160" width="30" height="30" rx="5"/><rect x="200" y="160" width="30" height="30" rx="5"/><rect x="240" y="160" width="30" height="30" rx="5"/><rect x="120" y="200" width="30" height="30" rx="5"/><rect x="160" y="200" width="30" height="30" rx="5"/><rect x="200" y="200" width="30" height="30" rx="5"/><rect x="240" y="200" width="30" height="30" rx="5"/></g></svg>